<mxfile host="Electron" agent="Mozilla/5.0 (X11; Linux x86_64) AppleWebKit/537.36 (KHTML, like Gecko) draw.io/27.0.9 Chrome/134.0.6998.205 Electron/35.5.1 Safari/537.36" version="27.0.9">
  <diagram name="Page-1" id="mdj1oEsB6yVNv7tQf8EB">
    <mxGraphModel dx="1011" dy="702" grid="1" gridSize="10" guides="1" tooltips="1" connect="1" arrows="1" fold="1" page="1" pageScale="1" pageWidth="850" pageHeight="1100" math="0" shadow="0">
      <root>
        <mxCell id="0" />
        <mxCell id="1" parent="0" />
        <mxCell id="VYm-MY7UEdnGm3pRA0sD-1" value="" style="whiteSpace=wrap;html=1;aspect=fixed;" vertex="1" parent="1">
          <mxGeometry x="80" y="80" width="80" height="80" as="geometry" />
        </mxCell>
        <mxCell id="VYm-MY7UEdnGm3pRA0sD-2" value="" style="whiteSpace=wrap;html=1;aspect=fixed;" vertex="1" parent="1">
          <mxGeometry x="160" y="80" width="80" height="80" as="geometry" />
        </mxCell>
        <mxCell id="VYm-MY7UEdnGm3pRA0sD-3" value="" style="whiteSpace=wrap;html=1;aspect=fixed;" vertex="1" parent="1">
          <mxGeometry x="240" y="80" width="80" height="80" as="geometry" />
        </mxCell>
        <mxCell id="VYm-MY7UEdnGm3pRA0sD-4" value="" style="whiteSpace=wrap;html=1;aspect=fixed;" vertex="1" parent="1">
          <mxGeometry x="320" y="80" width="80" height="80" as="geometry" />
        </mxCell>
        <mxCell id="VYm-MY7UEdnGm3pRA0sD-5" value="" style="whiteSpace=wrap;html=1;aspect=fixed;" vertex="1" parent="1">
          <mxGeometry x="400" y="80" width="80" height="80" as="geometry" />
        </mxCell>
        <mxCell id="VYm-MY7UEdnGm3pRA0sD-6" value="" style="whiteSpace=wrap;html=1;aspect=fixed;" vertex="1" parent="1">
          <mxGeometry x="480" y="80" width="80" height="80" as="geometry" />
        </mxCell>
        <mxCell id="VYm-MY7UEdnGm3pRA0sD-7" value="" style="whiteSpace=wrap;html=1;aspect=fixed;" vertex="1" parent="1">
          <mxGeometry x="560" y="80" width="80" height="80" as="geometry" />
        </mxCell>
        <mxCell id="VYm-MY7UEdnGm3pRA0sD-8" value="" style="whiteSpace=wrap;html=1;aspect=fixed;" vertex="1" parent="1">
          <mxGeometry x="640" y="80" width="80" height="80" as="geometry" />
        </mxCell>
        <mxCell id="VYm-MY7UEdnGm3pRA0sD-17" value="GCLK0" style="endArrow=none;html=1;rounded=0;spacingBottom=20;strokeWidth=3;fillColor=#dae8fc;strokeColor=#6c8ebf;" edge="1" parent="1">
          <mxGeometry width="50" height="50" relative="1" as="geometry">
            <mxPoint x="90" y="119.5" as="sourcePoint" />
            <mxPoint x="150" y="119.5" as="targetPoint" />
          </mxGeometry>
        </mxCell>
        <mxCell id="VYm-MY7UEdnGm3pRA0sD-18" value="GCLK0" style="endArrow=none;html=1;rounded=0;spacingBottom=20;strokeWidth=3;fillColor=#dae8fc;strokeColor=#6c8ebf;" edge="1" parent="1">
          <mxGeometry width="50" height="50" relative="1" as="geometry">
            <mxPoint x="170" y="119.5" as="sourcePoint" />
            <mxPoint x="230" y="119.5" as="targetPoint" />
          </mxGeometry>
        </mxCell>
        <mxCell id="VYm-MY7UEdnGm3pRA0sD-20" value="GCLK0" style="endArrow=none;html=1;rounded=0;spacingBottom=20;strokeWidth=3;fillColor=#dae8fc;strokeColor=#6c8ebf;" edge="1" parent="1">
          <mxGeometry width="50" height="50" relative="1" as="geometry">
            <mxPoint x="250" y="119.5" as="sourcePoint" />
            <mxPoint x="310" y="119.5" as="targetPoint" />
          </mxGeometry>
        </mxCell>
        <mxCell id="VYm-MY7UEdnGm3pRA0sD-21" value="GCLK0" style="endArrow=none;html=1;rounded=0;spacingBottom=20;strokeWidth=3;fillColor=#dae8fc;strokeColor=#6c8ebf;" edge="1" parent="1">
          <mxGeometry width="50" height="50" relative="1" as="geometry">
            <mxPoint x="330" y="119.5" as="sourcePoint" />
            <mxPoint x="390" y="119.5" as="targetPoint" />
          </mxGeometry>
        </mxCell>
        <mxCell id="VYm-MY7UEdnGm3pRA0sD-22" value="GCLK0" style="endArrow=none;html=1;rounded=0;spacingBottom=20;strokeWidth=3;fillColor=#d5e8d4;strokeColor=#82b366;" edge="1" parent="1">
          <mxGeometry width="50" height="50" relative="1" as="geometry">
            <mxPoint x="410" y="119.5" as="sourcePoint" />
            <mxPoint x="470" y="119.5" as="targetPoint" />
          </mxGeometry>
        </mxCell>
        <mxCell id="VYm-MY7UEdnGm3pRA0sD-23" value="GCLK0" style="endArrow=none;html=1;rounded=0;spacingBottom=20;strokeWidth=3;fillColor=#d5e8d4;strokeColor=#82b366;" edge="1" parent="1">
          <mxGeometry width="50" height="50" relative="1" as="geometry">
            <mxPoint x="490" y="119.5" as="sourcePoint" />
            <mxPoint x="550" y="119.5" as="targetPoint" />
          </mxGeometry>
        </mxCell>
        <mxCell id="VYm-MY7UEdnGm3pRA0sD-24" value="GCLK0" style="endArrow=none;html=1;rounded=0;spacingBottom=20;strokeWidth=3;fillColor=#d5e8d4;strokeColor=#82b366;" edge="1" parent="1">
          <mxGeometry width="50" height="50" relative="1" as="geometry">
            <mxPoint x="570" y="119.5" as="sourcePoint" />
            <mxPoint x="630" y="119.5" as="targetPoint" />
          </mxGeometry>
        </mxCell>
        <mxCell id="VYm-MY7UEdnGm3pRA0sD-25" value="GCLK0" style="endArrow=none;html=1;rounded=0;spacingBottom=20;strokeWidth=3;fillColor=#d5e8d4;strokeColor=#82b366;" edge="1" parent="1">
          <mxGeometry width="50" height="50" relative="1" as="geometry">
            <mxPoint x="650" y="119.5" as="sourcePoint" />
            <mxPoint x="710" y="119.5" as="targetPoint" />
          </mxGeometry>
        </mxCell>
        <mxCell id="VYm-MY7UEdnGm3pRA0sD-27" value="" style="edgeStyle=none;orthogonalLoop=1;jettySize=auto;html=1;rounded=0;endArrow=none;startFill=0;fillColor=#dae8fc;strokeColor=#6c8ebf;" edge="1" parent="1">
          <mxGeometry width="80" relative="1" as="geometry">
            <mxPoint x="150" y="119.8" as="sourcePoint" />
            <mxPoint x="170" y="119.8" as="targetPoint" />
            <Array as="points" />
          </mxGeometry>
        </mxCell>
        <mxCell id="VYm-MY7UEdnGm3pRA0sD-28" value="" style="edgeStyle=none;orthogonalLoop=1;jettySize=auto;html=1;rounded=0;endArrow=none;startFill=0;fillColor=#dae8fc;strokeColor=#6c8ebf;" edge="1" parent="1">
          <mxGeometry width="80" relative="1" as="geometry">
            <mxPoint x="230" y="119.8" as="sourcePoint" />
            <mxPoint x="250" y="119.8" as="targetPoint" />
            <Array as="points" />
          </mxGeometry>
        </mxCell>
        <mxCell id="VYm-MY7UEdnGm3pRA0sD-29" value="" style="edgeStyle=none;orthogonalLoop=1;jettySize=auto;html=1;rounded=0;endArrow=none;startFill=0;fillColor=#dae8fc;strokeColor=#6c8ebf;" edge="1" parent="1">
          <mxGeometry width="80" relative="1" as="geometry">
            <mxPoint x="310" y="119.8" as="sourcePoint" />
            <mxPoint x="330" y="119.8" as="targetPoint" />
            <Array as="points" />
          </mxGeometry>
        </mxCell>
        <mxCell id="VYm-MY7UEdnGm3pRA0sD-30" value="" style="edgeStyle=none;orthogonalLoop=1;jettySize=auto;html=1;rounded=0;endArrow=none;startFill=0;fillColor=#d5e8d4;strokeColor=#82b366;" edge="1" parent="1">
          <mxGeometry width="80" relative="1" as="geometry">
            <mxPoint x="470" y="119.8" as="sourcePoint" />
            <mxPoint x="490" y="119.8" as="targetPoint" />
            <Array as="points" />
          </mxGeometry>
        </mxCell>
        <mxCell id="VYm-MY7UEdnGm3pRA0sD-31" value="" style="edgeStyle=none;orthogonalLoop=1;jettySize=auto;html=1;rounded=0;endArrow=none;startFill=0;fillColor=#d5e8d4;strokeColor=#82b366;" edge="1" parent="1">
          <mxGeometry width="80" relative="1" as="geometry">
            <mxPoint x="550" y="119.8" as="sourcePoint" />
            <mxPoint x="570" y="119.8" as="targetPoint" />
            <Array as="points" />
          </mxGeometry>
        </mxCell>
        <mxCell id="VYm-MY7UEdnGm3pRA0sD-32" value="" style="edgeStyle=none;orthogonalLoop=1;jettySize=auto;html=1;rounded=0;endArrow=none;startFill=0;fillColor=#d5e8d4;strokeColor=#82b366;" edge="1" parent="1">
          <mxGeometry width="80" relative="1" as="geometry">
            <mxPoint x="630" y="119.8" as="sourcePoint" />
            <mxPoint x="650" y="119.8" as="targetPoint" />
            <Array as="points" />
          </mxGeometry>
        </mxCell>
        <mxCell id="VYm-MY7UEdnGm3pRA0sD-33" value="" style="whiteSpace=wrap;html=1;aspect=fixed;" vertex="1" parent="1">
          <mxGeometry x="80" y="160" width="80" height="80" as="geometry" />
        </mxCell>
        <mxCell id="VYm-MY7UEdnGm3pRA0sD-34" value="" style="whiteSpace=wrap;html=1;aspect=fixed;" vertex="1" parent="1">
          <mxGeometry x="160" y="160" width="80" height="80" as="geometry" />
        </mxCell>
        <mxCell id="VYm-MY7UEdnGm3pRA0sD-35" value="" style="whiteSpace=wrap;html=1;aspect=fixed;" vertex="1" parent="1">
          <mxGeometry x="240" y="160" width="80" height="80" as="geometry" />
        </mxCell>
        <mxCell id="VYm-MY7UEdnGm3pRA0sD-36" value="" style="whiteSpace=wrap;html=1;aspect=fixed;" vertex="1" parent="1">
          <mxGeometry x="320" y="160" width="80" height="80" as="geometry" />
        </mxCell>
        <mxCell id="VYm-MY7UEdnGm3pRA0sD-37" value="" style="whiteSpace=wrap;html=1;aspect=fixed;" vertex="1" parent="1">
          <mxGeometry x="400" y="160" width="80" height="80" as="geometry" />
        </mxCell>
        <mxCell id="VYm-MY7UEdnGm3pRA0sD-38" value="" style="whiteSpace=wrap;html=1;aspect=fixed;" vertex="1" parent="1">
          <mxGeometry x="480" y="160" width="80" height="80" as="geometry" />
        </mxCell>
        <mxCell id="VYm-MY7UEdnGm3pRA0sD-39" value="" style="whiteSpace=wrap;html=1;aspect=fixed;" vertex="1" parent="1">
          <mxGeometry x="560" y="160" width="80" height="80" as="geometry" />
        </mxCell>
        <mxCell id="VYm-MY7UEdnGm3pRA0sD-40" value="" style="whiteSpace=wrap;html=1;aspect=fixed;" vertex="1" parent="1">
          <mxGeometry x="640" y="160" width="80" height="80" as="geometry" />
        </mxCell>
        <mxCell id="VYm-MY7UEdnGm3pRA0sD-41" value="GCLK0" style="endArrow=none;html=1;rounded=0;spacingBottom=20;strokeWidth=3;fillColor=#dae8fc;strokeColor=#6c8ebf;" edge="1" parent="1">
          <mxGeometry width="50" height="50" relative="1" as="geometry">
            <mxPoint x="90" y="199.5" as="sourcePoint" />
            <mxPoint x="150" y="199.5" as="targetPoint" />
          </mxGeometry>
        </mxCell>
        <mxCell id="VYm-MY7UEdnGm3pRA0sD-42" value="GCLK0" style="endArrow=none;html=1;rounded=0;spacingBottom=20;strokeWidth=3;fillColor=#dae8fc;strokeColor=#6c8ebf;" edge="1" parent="1">
          <mxGeometry width="50" height="50" relative="1" as="geometry">
            <mxPoint x="170" y="199.5" as="sourcePoint" />
            <mxPoint x="230" y="199.5" as="targetPoint" />
          </mxGeometry>
        </mxCell>
        <mxCell id="VYm-MY7UEdnGm3pRA0sD-43" value="GCLK0" style="endArrow=none;html=1;rounded=0;spacingBottom=20;strokeWidth=3;fillColor=#dae8fc;strokeColor=#6c8ebf;" edge="1" parent="1">
          <mxGeometry width="50" height="50" relative="1" as="geometry">
            <mxPoint x="250" y="199.5" as="sourcePoint" />
            <mxPoint x="310" y="199.5" as="targetPoint" />
          </mxGeometry>
        </mxCell>
        <mxCell id="VYm-MY7UEdnGm3pRA0sD-44" value="GCLK0" style="endArrow=none;html=1;rounded=0;spacingBottom=20;strokeWidth=3;fillColor=#dae8fc;strokeColor=#6c8ebf;" edge="1" parent="1">
          <mxGeometry width="50" height="50" relative="1" as="geometry">
            <mxPoint x="330" y="199.5" as="sourcePoint" />
            <mxPoint x="390" y="199.5" as="targetPoint" />
          </mxGeometry>
        </mxCell>
        <mxCell id="VYm-MY7UEdnGm3pRA0sD-45" value="GCLK0" style="endArrow=none;html=1;rounded=0;spacingBottom=20;strokeWidth=3;fillColor=#d5e8d4;strokeColor=#82b366;" edge="1" parent="1">
          <mxGeometry width="50" height="50" relative="1" as="geometry">
            <mxPoint x="410" y="199.5" as="sourcePoint" />
            <mxPoint x="470" y="199.5" as="targetPoint" />
          </mxGeometry>
        </mxCell>
        <mxCell id="VYm-MY7UEdnGm3pRA0sD-46" value="GCLK0" style="endArrow=none;html=1;rounded=0;spacingBottom=20;strokeWidth=3;fillColor=#d5e8d4;strokeColor=#82b366;" edge="1" parent="1">
          <mxGeometry width="50" height="50" relative="1" as="geometry">
            <mxPoint x="490" y="199.5" as="sourcePoint" />
            <mxPoint x="550" y="199.5" as="targetPoint" />
          </mxGeometry>
        </mxCell>
        <mxCell id="VYm-MY7UEdnGm3pRA0sD-47" value="GCLK0" style="endArrow=none;html=1;rounded=0;spacingBottom=20;strokeWidth=3;fillColor=#d5e8d4;strokeColor=#82b366;" edge="1" parent="1">
          <mxGeometry width="50" height="50" relative="1" as="geometry">
            <mxPoint x="570" y="199.5" as="sourcePoint" />
            <mxPoint x="630" y="199.5" as="targetPoint" />
          </mxGeometry>
        </mxCell>
        <mxCell id="VYm-MY7UEdnGm3pRA0sD-48" value="GCLK0" style="endArrow=none;html=1;rounded=0;spacingBottom=20;strokeWidth=3;fillColor=#d5e8d4;strokeColor=#82b366;" edge="1" parent="1">
          <mxGeometry width="50" height="50" relative="1" as="geometry">
            <mxPoint x="650" y="199.5" as="sourcePoint" />
            <mxPoint x="710" y="199.5" as="targetPoint" />
          </mxGeometry>
        </mxCell>
        <mxCell id="VYm-MY7UEdnGm3pRA0sD-49" value="" style="edgeStyle=none;orthogonalLoop=1;jettySize=auto;html=1;rounded=0;endArrow=none;startFill=0;fillColor=#dae8fc;strokeColor=#6c8ebf;" edge="1" parent="1">
          <mxGeometry width="80" relative="1" as="geometry">
            <mxPoint x="150" y="199.8" as="sourcePoint" />
            <mxPoint x="170" y="199.8" as="targetPoint" />
            <Array as="points" />
          </mxGeometry>
        </mxCell>
        <mxCell id="VYm-MY7UEdnGm3pRA0sD-50" value="" style="edgeStyle=none;orthogonalLoop=1;jettySize=auto;html=1;rounded=0;endArrow=none;startFill=0;fillColor=#dae8fc;strokeColor=#6c8ebf;" edge="1" parent="1">
          <mxGeometry width="80" relative="1" as="geometry">
            <mxPoint x="230" y="199.8" as="sourcePoint" />
            <mxPoint x="250" y="199.8" as="targetPoint" />
            <Array as="points" />
          </mxGeometry>
        </mxCell>
        <mxCell id="VYm-MY7UEdnGm3pRA0sD-51" value="" style="edgeStyle=none;orthogonalLoop=1;jettySize=auto;html=1;rounded=0;endArrow=none;startFill=0;fillColor=#dae8fc;strokeColor=#6c8ebf;" edge="1" parent="1">
          <mxGeometry width="80" relative="1" as="geometry">
            <mxPoint x="310" y="199.8" as="sourcePoint" />
            <mxPoint x="330" y="199.8" as="targetPoint" />
            <Array as="points" />
          </mxGeometry>
        </mxCell>
        <mxCell id="VYm-MY7UEdnGm3pRA0sD-52" value="" style="edgeStyle=none;orthogonalLoop=1;jettySize=auto;html=1;rounded=0;endArrow=none;startFill=0;fillColor=#d5e8d4;strokeColor=#82b366;" edge="1" parent="1">
          <mxGeometry width="80" relative="1" as="geometry">
            <mxPoint x="470" y="199.8" as="sourcePoint" />
            <mxPoint x="490" y="199.8" as="targetPoint" />
            <Array as="points" />
          </mxGeometry>
        </mxCell>
        <mxCell id="VYm-MY7UEdnGm3pRA0sD-53" value="" style="edgeStyle=none;orthogonalLoop=1;jettySize=auto;html=1;rounded=0;endArrow=none;startFill=0;fillColor=#d5e8d4;strokeColor=#82b366;" edge="1" parent="1">
          <mxGeometry width="80" relative="1" as="geometry">
            <mxPoint x="550" y="199.8" as="sourcePoint" />
            <mxPoint x="570" y="199.8" as="targetPoint" />
            <Array as="points" />
          </mxGeometry>
        </mxCell>
        <mxCell id="VYm-MY7UEdnGm3pRA0sD-54" value="" style="edgeStyle=none;orthogonalLoop=1;jettySize=auto;html=1;rounded=0;endArrow=none;startFill=0;fillColor=#d5e8d4;strokeColor=#82b366;" edge="1" parent="1">
          <mxGeometry width="80" relative="1" as="geometry">
            <mxPoint x="630" y="199.8" as="sourcePoint" />
            <mxPoint x="650" y="199.8" as="targetPoint" />
            <Array as="points" />
          </mxGeometry>
        </mxCell>
        <mxCell id="VYm-MY7UEdnGm3pRA0sD-55" value="" style="whiteSpace=wrap;html=1;aspect=fixed;" vertex="1" parent="1">
          <mxGeometry x="80" y="240" width="80" height="80" as="geometry" />
        </mxCell>
        <mxCell id="VYm-MY7UEdnGm3pRA0sD-56" value="" style="whiteSpace=wrap;html=1;aspect=fixed;" vertex="1" parent="1">
          <mxGeometry x="160" y="240" width="80" height="80" as="geometry" />
        </mxCell>
        <mxCell id="VYm-MY7UEdnGm3pRA0sD-57" value="" style="whiteSpace=wrap;html=1;aspect=fixed;" vertex="1" parent="1">
          <mxGeometry x="240" y="240" width="80" height="80" as="geometry" />
        </mxCell>
        <mxCell id="VYm-MY7UEdnGm3pRA0sD-58" value="" style="whiteSpace=wrap;html=1;aspect=fixed;" vertex="1" parent="1">
          <mxGeometry x="320" y="240" width="80" height="80" as="geometry" />
        </mxCell>
        <mxCell id="VYm-MY7UEdnGm3pRA0sD-59" value="" style="whiteSpace=wrap;html=1;aspect=fixed;" vertex="1" parent="1">
          <mxGeometry x="400" y="240" width="80" height="80" as="geometry" />
        </mxCell>
        <mxCell id="VYm-MY7UEdnGm3pRA0sD-60" value="" style="whiteSpace=wrap;html=1;aspect=fixed;" vertex="1" parent="1">
          <mxGeometry x="480" y="240" width="80" height="80" as="geometry" />
        </mxCell>
        <mxCell id="VYm-MY7UEdnGm3pRA0sD-61" value="" style="whiteSpace=wrap;html=1;aspect=fixed;" vertex="1" parent="1">
          <mxGeometry x="560" y="240" width="80" height="80" as="geometry" />
        </mxCell>
        <mxCell id="VYm-MY7UEdnGm3pRA0sD-62" value="" style="whiteSpace=wrap;html=1;aspect=fixed;" vertex="1" parent="1">
          <mxGeometry x="640" y="240" width="80" height="80" as="geometry" />
        </mxCell>
        <mxCell id="VYm-MY7UEdnGm3pRA0sD-63" value="GCLK0" style="endArrow=none;html=1;rounded=0;spacingBottom=20;strokeWidth=3;fillColor=#dae8fc;strokeColor=#6c8ebf;" edge="1" parent="1">
          <mxGeometry width="50" height="50" relative="1" as="geometry">
            <mxPoint x="90" y="279.5" as="sourcePoint" />
            <mxPoint x="150" y="279.5" as="targetPoint" />
          </mxGeometry>
        </mxCell>
        <mxCell id="VYm-MY7UEdnGm3pRA0sD-64" value="GCLK0" style="endArrow=none;html=1;rounded=0;spacingBottom=20;strokeWidth=3;fillColor=#dae8fc;strokeColor=#6c8ebf;" edge="1" parent="1">
          <mxGeometry width="50" height="50" relative="1" as="geometry">
            <mxPoint x="170" y="279.5" as="sourcePoint" />
            <mxPoint x="230" y="279.5" as="targetPoint" />
          </mxGeometry>
        </mxCell>
        <mxCell id="VYm-MY7UEdnGm3pRA0sD-65" value="GCLK0" style="endArrow=none;html=1;rounded=0;spacingBottom=20;strokeWidth=3;fillColor=#dae8fc;strokeColor=#6c8ebf;" edge="1" parent="1">
          <mxGeometry width="50" height="50" relative="1" as="geometry">
            <mxPoint x="250" y="279.5" as="sourcePoint" />
            <mxPoint x="310" y="279.5" as="targetPoint" />
          </mxGeometry>
        </mxCell>
        <mxCell id="VYm-MY7UEdnGm3pRA0sD-66" value="GCLK0" style="endArrow=none;html=1;rounded=0;spacingBottom=20;strokeWidth=3;fillColor=#dae8fc;strokeColor=#6c8ebf;" edge="1" parent="1">
          <mxGeometry width="50" height="50" relative="1" as="geometry">
            <mxPoint x="330" y="279.5" as="sourcePoint" />
            <mxPoint x="390" y="279.5" as="targetPoint" />
          </mxGeometry>
        </mxCell>
        <mxCell id="VYm-MY7UEdnGm3pRA0sD-67" value="GCLK0" style="endArrow=none;html=1;rounded=0;spacingBottom=20;strokeWidth=3;fillColor=#d5e8d4;strokeColor=#82b366;" edge="1" parent="1">
          <mxGeometry width="50" height="50" relative="1" as="geometry">
            <mxPoint x="410" y="279.5" as="sourcePoint" />
            <mxPoint x="470" y="279.5" as="targetPoint" />
          </mxGeometry>
        </mxCell>
        <mxCell id="VYm-MY7UEdnGm3pRA0sD-68" value="GCLK0" style="endArrow=none;html=1;rounded=0;spacingBottom=20;strokeWidth=3;fillColor=#d5e8d4;strokeColor=#82b366;" edge="1" parent="1">
          <mxGeometry width="50" height="50" relative="1" as="geometry">
            <mxPoint x="490" y="279.5" as="sourcePoint" />
            <mxPoint x="550" y="279.5" as="targetPoint" />
          </mxGeometry>
        </mxCell>
        <mxCell id="VYm-MY7UEdnGm3pRA0sD-69" value="GCLK0" style="endArrow=none;html=1;rounded=0;spacingBottom=20;strokeWidth=3;fillColor=#d5e8d4;strokeColor=#82b366;" edge="1" parent="1">
          <mxGeometry width="50" height="50" relative="1" as="geometry">
            <mxPoint x="570" y="279.5" as="sourcePoint" />
            <mxPoint x="630" y="279.5" as="targetPoint" />
          </mxGeometry>
        </mxCell>
        <mxCell id="VYm-MY7UEdnGm3pRA0sD-70" value="GCLK0" style="endArrow=none;html=1;rounded=0;spacingBottom=20;strokeWidth=3;fillColor=#d5e8d4;strokeColor=#82b366;" edge="1" parent="1">
          <mxGeometry width="50" height="50" relative="1" as="geometry">
            <mxPoint x="650" y="279.5" as="sourcePoint" />
            <mxPoint x="710" y="279.5" as="targetPoint" />
          </mxGeometry>
        </mxCell>
        <mxCell id="VYm-MY7UEdnGm3pRA0sD-71" value="" style="edgeStyle=none;orthogonalLoop=1;jettySize=auto;html=1;rounded=0;endArrow=none;startFill=0;fillColor=#dae8fc;strokeColor=#6c8ebf;" edge="1" parent="1">
          <mxGeometry width="80" relative="1" as="geometry">
            <mxPoint x="150" y="279.8" as="sourcePoint" />
            <mxPoint x="170" y="279.8" as="targetPoint" />
            <Array as="points" />
          </mxGeometry>
        </mxCell>
        <mxCell id="VYm-MY7UEdnGm3pRA0sD-72" value="" style="edgeStyle=none;orthogonalLoop=1;jettySize=auto;html=1;rounded=0;endArrow=none;startFill=0;fillColor=#dae8fc;strokeColor=#6c8ebf;" edge="1" parent="1">
          <mxGeometry width="80" relative="1" as="geometry">
            <mxPoint x="230" y="279.8" as="sourcePoint" />
            <mxPoint x="250" y="279.8" as="targetPoint" />
            <Array as="points" />
          </mxGeometry>
        </mxCell>
        <mxCell id="VYm-MY7UEdnGm3pRA0sD-73" value="" style="edgeStyle=none;orthogonalLoop=1;jettySize=auto;html=1;rounded=0;endArrow=none;startFill=0;fillColor=#dae8fc;strokeColor=#6c8ebf;" edge="1" parent="1">
          <mxGeometry width="80" relative="1" as="geometry">
            <mxPoint x="310" y="279.8" as="sourcePoint" />
            <mxPoint x="330" y="279.8" as="targetPoint" />
            <Array as="points" />
          </mxGeometry>
        </mxCell>
        <mxCell id="VYm-MY7UEdnGm3pRA0sD-74" value="" style="edgeStyle=none;orthogonalLoop=1;jettySize=auto;html=1;rounded=0;endArrow=none;startFill=0;fillColor=#d5e8d4;strokeColor=#82b366;" edge="1" parent="1">
          <mxGeometry width="80" relative="1" as="geometry">
            <mxPoint x="470" y="279.8" as="sourcePoint" />
            <mxPoint x="490" y="279.8" as="targetPoint" />
            <Array as="points" />
          </mxGeometry>
        </mxCell>
        <mxCell id="VYm-MY7UEdnGm3pRA0sD-75" value="" style="edgeStyle=none;orthogonalLoop=1;jettySize=auto;html=1;rounded=0;endArrow=none;startFill=0;fillColor=#d5e8d4;strokeColor=#82b366;" edge="1" parent="1">
          <mxGeometry width="80" relative="1" as="geometry">
            <mxPoint x="550" y="279.8" as="sourcePoint" />
            <mxPoint x="570" y="279.8" as="targetPoint" />
            <Array as="points" />
          </mxGeometry>
        </mxCell>
        <mxCell id="VYm-MY7UEdnGm3pRA0sD-76" value="" style="edgeStyle=none;orthogonalLoop=1;jettySize=auto;html=1;rounded=0;endArrow=none;startFill=0;fillColor=#d5e8d4;strokeColor=#82b366;" edge="1" parent="1">
          <mxGeometry width="80" relative="1" as="geometry">
            <mxPoint x="630" y="279.8" as="sourcePoint" />
            <mxPoint x="650" y="279.8" as="targetPoint" />
            <Array as="points" />
          </mxGeometry>
        </mxCell>
        <mxCell id="VYm-MY7UEdnGm3pRA0sD-77" value="" style="whiteSpace=wrap;html=1;aspect=fixed;" vertex="1" parent="1">
          <mxGeometry x="80" y="320" width="80" height="80" as="geometry" />
        </mxCell>
        <mxCell id="VYm-MY7UEdnGm3pRA0sD-78" value="" style="whiteSpace=wrap;html=1;aspect=fixed;" vertex="1" parent="1">
          <mxGeometry x="160" y="320" width="80" height="80" as="geometry" />
        </mxCell>
        <mxCell id="VYm-MY7UEdnGm3pRA0sD-79" value="" style="whiteSpace=wrap;html=1;aspect=fixed;" vertex="1" parent="1">
          <mxGeometry x="240" y="320" width="80" height="80" as="geometry" />
        </mxCell>
        <mxCell id="VYm-MY7UEdnGm3pRA0sD-80" value="" style="whiteSpace=wrap;html=1;aspect=fixed;" vertex="1" parent="1">
          <mxGeometry x="320" y="320" width="80" height="80" as="geometry" />
        </mxCell>
        <mxCell id="VYm-MY7UEdnGm3pRA0sD-81" value="" style="whiteSpace=wrap;html=1;aspect=fixed;" vertex="1" parent="1">
          <mxGeometry x="400" y="320" width="80" height="80" as="geometry" />
        </mxCell>
        <mxCell id="VYm-MY7UEdnGm3pRA0sD-82" value="" style="whiteSpace=wrap;html=1;aspect=fixed;" vertex="1" parent="1">
          <mxGeometry x="480" y="320" width="80" height="80" as="geometry" />
        </mxCell>
        <mxCell id="VYm-MY7UEdnGm3pRA0sD-83" value="" style="whiteSpace=wrap;html=1;aspect=fixed;" vertex="1" parent="1">
          <mxGeometry x="560" y="320" width="80" height="80" as="geometry" />
        </mxCell>
        <mxCell id="VYm-MY7UEdnGm3pRA0sD-84" value="" style="whiteSpace=wrap;html=1;aspect=fixed;" vertex="1" parent="1">
          <mxGeometry x="640" y="320" width="80" height="80" as="geometry" />
        </mxCell>
        <mxCell id="VYm-MY7UEdnGm3pRA0sD-85" value="GCLK0" style="endArrow=none;html=1;rounded=0;spacingBottom=20;strokeWidth=3;fillColor=#dae8fc;strokeColor=#6c8ebf;" edge="1" parent="1">
          <mxGeometry width="50" height="50" relative="1" as="geometry">
            <mxPoint x="90" y="359.5" as="sourcePoint" />
            <mxPoint x="150" y="359.5" as="targetPoint" />
          </mxGeometry>
        </mxCell>
        <mxCell id="VYm-MY7UEdnGm3pRA0sD-86" value="GCLK0" style="endArrow=none;html=1;rounded=0;spacingBottom=20;strokeWidth=3;fillColor=#dae8fc;strokeColor=#6c8ebf;" edge="1" parent="1">
          <mxGeometry width="50" height="50" relative="1" as="geometry">
            <mxPoint x="170" y="359.5" as="sourcePoint" />
            <mxPoint x="230" y="359.5" as="targetPoint" />
          </mxGeometry>
        </mxCell>
        <mxCell id="VYm-MY7UEdnGm3pRA0sD-87" value="GCLK0" style="endArrow=none;html=1;rounded=0;spacingBottom=20;strokeWidth=3;fillColor=#dae8fc;strokeColor=#6c8ebf;" edge="1" parent="1">
          <mxGeometry width="50" height="50" relative="1" as="geometry">
            <mxPoint x="250" y="359.5" as="sourcePoint" />
            <mxPoint x="310" y="359.5" as="targetPoint" />
          </mxGeometry>
        </mxCell>
        <mxCell id="VYm-MY7UEdnGm3pRA0sD-88" value="GCLK0" style="endArrow=none;html=1;rounded=0;spacingBottom=20;strokeWidth=3;fillColor=#dae8fc;strokeColor=#6c8ebf;" edge="1" parent="1">
          <mxGeometry width="50" height="50" relative="1" as="geometry">
            <mxPoint x="330" y="359.5" as="sourcePoint" />
            <mxPoint x="390" y="359.5" as="targetPoint" />
          </mxGeometry>
        </mxCell>
        <mxCell id="VYm-MY7UEdnGm3pRA0sD-89" value="GCLK0" style="endArrow=none;html=1;rounded=0;spacingBottom=20;strokeWidth=3;fillColor=#d5e8d4;strokeColor=#82b366;" edge="1" parent="1">
          <mxGeometry width="50" height="50" relative="1" as="geometry">
            <mxPoint x="410" y="359.5" as="sourcePoint" />
            <mxPoint x="470" y="359.5" as="targetPoint" />
          </mxGeometry>
        </mxCell>
        <mxCell id="VYm-MY7UEdnGm3pRA0sD-90" value="GCLK0" style="endArrow=none;html=1;rounded=0;spacingBottom=20;strokeWidth=3;fillColor=#d5e8d4;strokeColor=#82b366;" edge="1" parent="1">
          <mxGeometry width="50" height="50" relative="1" as="geometry">
            <mxPoint x="490" y="359.5" as="sourcePoint" />
            <mxPoint x="550" y="359.5" as="targetPoint" />
          </mxGeometry>
        </mxCell>
        <mxCell id="VYm-MY7UEdnGm3pRA0sD-91" value="GCLK0" style="endArrow=none;html=1;rounded=0;spacingBottom=20;strokeWidth=3;fillColor=#d5e8d4;strokeColor=#82b366;" edge="1" parent="1">
          <mxGeometry width="50" height="50" relative="1" as="geometry">
            <mxPoint x="570" y="359.5" as="sourcePoint" />
            <mxPoint x="630" y="359.5" as="targetPoint" />
          </mxGeometry>
        </mxCell>
        <mxCell id="VYm-MY7UEdnGm3pRA0sD-92" value="GCLK0" style="endArrow=none;html=1;rounded=0;spacingBottom=20;strokeWidth=3;fillColor=#d5e8d4;strokeColor=#82b366;" edge="1" parent="1">
          <mxGeometry width="50" height="50" relative="1" as="geometry">
            <mxPoint x="650" y="359.5" as="sourcePoint" />
            <mxPoint x="710" y="359.5" as="targetPoint" />
          </mxGeometry>
        </mxCell>
        <mxCell id="VYm-MY7UEdnGm3pRA0sD-93" value="" style="edgeStyle=none;orthogonalLoop=1;jettySize=auto;html=1;rounded=0;endArrow=none;startFill=0;fillColor=#dae8fc;strokeColor=#6c8ebf;" edge="1" parent="1">
          <mxGeometry width="80" relative="1" as="geometry">
            <mxPoint x="150" y="359.8" as="sourcePoint" />
            <mxPoint x="170" y="359.8" as="targetPoint" />
            <Array as="points" />
          </mxGeometry>
        </mxCell>
        <mxCell id="VYm-MY7UEdnGm3pRA0sD-94" value="" style="edgeStyle=none;orthogonalLoop=1;jettySize=auto;html=1;rounded=0;endArrow=none;startFill=0;fillColor=#dae8fc;strokeColor=#6c8ebf;" edge="1" parent="1">
          <mxGeometry width="80" relative="1" as="geometry">
            <mxPoint x="230" y="359.8" as="sourcePoint" />
            <mxPoint x="250" y="359.8" as="targetPoint" />
            <Array as="points" />
          </mxGeometry>
        </mxCell>
        <mxCell id="VYm-MY7UEdnGm3pRA0sD-95" value="" style="edgeStyle=none;orthogonalLoop=1;jettySize=auto;html=1;rounded=0;endArrow=none;startFill=0;fillColor=#dae8fc;strokeColor=#6c8ebf;" edge="1" parent="1">
          <mxGeometry width="80" relative="1" as="geometry">
            <mxPoint x="310" y="359.8" as="sourcePoint" />
            <mxPoint x="330" y="359.8" as="targetPoint" />
            <Array as="points" />
          </mxGeometry>
        </mxCell>
        <mxCell id="VYm-MY7UEdnGm3pRA0sD-96" value="" style="edgeStyle=none;orthogonalLoop=1;jettySize=auto;html=1;rounded=0;endArrow=none;startFill=0;fillColor=#d5e8d4;strokeColor=#82b366;" edge="1" parent="1">
          <mxGeometry width="80" relative="1" as="geometry">
            <mxPoint x="470" y="359.8" as="sourcePoint" />
            <mxPoint x="490" y="359.8" as="targetPoint" />
            <Array as="points" />
          </mxGeometry>
        </mxCell>
        <mxCell id="VYm-MY7UEdnGm3pRA0sD-97" value="" style="edgeStyle=none;orthogonalLoop=1;jettySize=auto;html=1;rounded=0;endArrow=none;startFill=0;fillColor=#d5e8d4;strokeColor=#82b366;" edge="1" parent="1">
          <mxGeometry width="80" relative="1" as="geometry">
            <mxPoint x="550" y="359.8" as="sourcePoint" />
            <mxPoint x="570" y="359.8" as="targetPoint" />
            <Array as="points" />
          </mxGeometry>
        </mxCell>
        <mxCell id="VYm-MY7UEdnGm3pRA0sD-98" value="" style="edgeStyle=none;orthogonalLoop=1;jettySize=auto;html=1;rounded=0;endArrow=none;startFill=0;fillColor=#d5e8d4;strokeColor=#82b366;" edge="1" parent="1">
          <mxGeometry width="80" relative="1" as="geometry">
            <mxPoint x="630" y="359.8" as="sourcePoint" />
            <mxPoint x="650" y="359.8" as="targetPoint" />
            <Array as="points" />
          </mxGeometry>
        </mxCell>
        <mxCell id="VYm-MY7UEdnGm3pRA0sD-99" value="" style="whiteSpace=wrap;html=1;aspect=fixed;" vertex="1" parent="1">
          <mxGeometry x="80" y="400" width="80" height="80" as="geometry" />
        </mxCell>
        <mxCell id="VYm-MY7UEdnGm3pRA0sD-100" value="" style="whiteSpace=wrap;html=1;aspect=fixed;" vertex="1" parent="1">
          <mxGeometry x="160" y="400" width="80" height="80" as="geometry" />
        </mxCell>
        <mxCell id="VYm-MY7UEdnGm3pRA0sD-101" value="" style="whiteSpace=wrap;html=1;aspect=fixed;" vertex="1" parent="1">
          <mxGeometry x="240" y="400" width="80" height="80" as="geometry" />
        </mxCell>
        <mxCell id="VYm-MY7UEdnGm3pRA0sD-102" value="" style="whiteSpace=wrap;html=1;aspect=fixed;" vertex="1" parent="1">
          <mxGeometry x="320" y="400" width="80" height="80" as="geometry" />
        </mxCell>
        <mxCell id="VYm-MY7UEdnGm3pRA0sD-103" value="" style="whiteSpace=wrap;html=1;aspect=fixed;" vertex="1" parent="1">
          <mxGeometry x="400" y="400" width="80" height="80" as="geometry" />
        </mxCell>
        <mxCell id="VYm-MY7UEdnGm3pRA0sD-104" value="" style="whiteSpace=wrap;html=1;aspect=fixed;" vertex="1" parent="1">
          <mxGeometry x="480" y="400" width="80" height="80" as="geometry" />
        </mxCell>
        <mxCell id="VYm-MY7UEdnGm3pRA0sD-105" value="" style="whiteSpace=wrap;html=1;aspect=fixed;" vertex="1" parent="1">
          <mxGeometry x="560" y="400" width="80" height="80" as="geometry" />
        </mxCell>
        <mxCell id="VYm-MY7UEdnGm3pRA0sD-106" value="" style="whiteSpace=wrap;html=1;aspect=fixed;" vertex="1" parent="1">
          <mxGeometry x="640" y="400" width="80" height="80" as="geometry" />
        </mxCell>
        <mxCell id="VYm-MY7UEdnGm3pRA0sD-107" value="GCLK0" style="endArrow=none;html=1;rounded=0;spacingBottom=20;strokeWidth=3;fillColor=#f8cecc;strokeColor=#b85450;" edge="1" parent="1">
          <mxGeometry width="50" height="50" relative="1" as="geometry">
            <mxPoint x="90" y="439.5" as="sourcePoint" />
            <mxPoint x="150" y="439.5" as="targetPoint" />
          </mxGeometry>
        </mxCell>
        <mxCell id="VYm-MY7UEdnGm3pRA0sD-108" value="GCLK0" style="endArrow=none;html=1;rounded=0;spacingBottom=20;strokeWidth=3;fillColor=#f8cecc;strokeColor=#b85450;" edge="1" parent="1">
          <mxGeometry width="50" height="50" relative="1" as="geometry">
            <mxPoint x="170" y="439.5" as="sourcePoint" />
            <mxPoint x="230" y="439.5" as="targetPoint" />
          </mxGeometry>
        </mxCell>
        <mxCell id="VYm-MY7UEdnGm3pRA0sD-109" value="GCLK0" style="endArrow=none;html=1;rounded=0;spacingBottom=20;strokeWidth=3;fillColor=#f8cecc;strokeColor=#b85450;" edge="1" parent="1">
          <mxGeometry width="50" height="50" relative="1" as="geometry">
            <mxPoint x="250" y="439.5" as="sourcePoint" />
            <mxPoint x="310" y="439.5" as="targetPoint" />
          </mxGeometry>
        </mxCell>
        <mxCell id="VYm-MY7UEdnGm3pRA0sD-110" value="GCLK0" style="endArrow=none;html=1;rounded=0;spacingBottom=20;strokeWidth=3;fillColor=#f8cecc;strokeColor=#b85450;" edge="1" parent="1">
          <mxGeometry width="50" height="50" relative="1" as="geometry">
            <mxPoint x="330" y="439.5" as="sourcePoint" />
            <mxPoint x="390" y="439.5" as="targetPoint" />
          </mxGeometry>
        </mxCell>
        <mxCell id="VYm-MY7UEdnGm3pRA0sD-111" value="GCLK0" style="endArrow=none;html=1;rounded=0;spacingBottom=20;strokeWidth=3;fillColor=#fff2cc;strokeColor=#d6b656;" edge="1" parent="1">
          <mxGeometry width="50" height="50" relative="1" as="geometry">
            <mxPoint x="410" y="439.5" as="sourcePoint" />
            <mxPoint x="470" y="439.5" as="targetPoint" />
          </mxGeometry>
        </mxCell>
        <mxCell id="VYm-MY7UEdnGm3pRA0sD-112" value="GCLK0" style="endArrow=none;html=1;rounded=0;spacingBottom=20;strokeWidth=3;fillColor=#fff2cc;strokeColor=#d6b656;" edge="1" parent="1">
          <mxGeometry width="50" height="50" relative="1" as="geometry">
            <mxPoint x="490" y="439.5" as="sourcePoint" />
            <mxPoint x="550" y="439.5" as="targetPoint" />
          </mxGeometry>
        </mxCell>
        <mxCell id="VYm-MY7UEdnGm3pRA0sD-113" value="GCLK0" style="endArrow=none;html=1;rounded=0;spacingBottom=20;strokeWidth=3;fillColor=#fff2cc;strokeColor=#d6b656;" edge="1" parent="1">
          <mxGeometry width="50" height="50" relative="1" as="geometry">
            <mxPoint x="570" y="439.5" as="sourcePoint" />
            <mxPoint x="630" y="439.5" as="targetPoint" />
          </mxGeometry>
        </mxCell>
        <mxCell id="VYm-MY7UEdnGm3pRA0sD-114" value="GCLK0" style="endArrow=none;html=1;rounded=0;spacingBottom=20;strokeWidth=3;fillColor=#fff2cc;strokeColor=#d6b656;" edge="1" parent="1">
          <mxGeometry width="50" height="50" relative="1" as="geometry">
            <mxPoint x="650" y="439.5" as="sourcePoint" />
            <mxPoint x="710" y="439.5" as="targetPoint" />
          </mxGeometry>
        </mxCell>
        <mxCell id="VYm-MY7UEdnGm3pRA0sD-115" value="" style="edgeStyle=none;orthogonalLoop=1;jettySize=auto;html=1;rounded=0;endArrow=none;startFill=0;fillColor=#f8cecc;strokeColor=#b85450;" edge="1" parent="1">
          <mxGeometry width="80" relative="1" as="geometry">
            <mxPoint x="150" y="439.79999999999995" as="sourcePoint" />
            <mxPoint x="170" y="439.79999999999995" as="targetPoint" />
            <Array as="points" />
          </mxGeometry>
        </mxCell>
        <mxCell id="VYm-MY7UEdnGm3pRA0sD-116" value="" style="edgeStyle=none;orthogonalLoop=1;jettySize=auto;html=1;rounded=0;endArrow=none;startFill=0;fillColor=#f8cecc;strokeColor=#b85450;" edge="1" parent="1">
          <mxGeometry width="80" relative="1" as="geometry">
            <mxPoint x="230" y="439.79999999999995" as="sourcePoint" />
            <mxPoint x="250" y="439.79999999999995" as="targetPoint" />
            <Array as="points" />
          </mxGeometry>
        </mxCell>
        <mxCell id="VYm-MY7UEdnGm3pRA0sD-117" value="" style="edgeStyle=none;orthogonalLoop=1;jettySize=auto;html=1;rounded=0;endArrow=none;startFill=0;fillColor=#f8cecc;strokeColor=#b85450;" edge="1" parent="1">
          <mxGeometry width="80" relative="1" as="geometry">
            <mxPoint x="310" y="439.79999999999995" as="sourcePoint" />
            <mxPoint x="330" y="439.79999999999995" as="targetPoint" />
            <Array as="points" />
          </mxGeometry>
        </mxCell>
        <mxCell id="VYm-MY7UEdnGm3pRA0sD-118" value="" style="edgeStyle=none;orthogonalLoop=1;jettySize=auto;html=1;rounded=0;endArrow=none;startFill=0;fillColor=#fff2cc;strokeColor=#d6b656;" edge="1" parent="1">
          <mxGeometry width="80" relative="1" as="geometry">
            <mxPoint x="470" y="439.79999999999995" as="sourcePoint" />
            <mxPoint x="490" y="439.79999999999995" as="targetPoint" />
            <Array as="points" />
          </mxGeometry>
        </mxCell>
        <mxCell id="VYm-MY7UEdnGm3pRA0sD-119" value="" style="edgeStyle=none;orthogonalLoop=1;jettySize=auto;html=1;rounded=0;endArrow=none;startFill=0;fillColor=#fff2cc;strokeColor=#d6b656;" edge="1" parent="1">
          <mxGeometry width="80" relative="1" as="geometry">
            <mxPoint x="550" y="439.79999999999995" as="sourcePoint" />
            <mxPoint x="570" y="439.79999999999995" as="targetPoint" />
            <Array as="points" />
          </mxGeometry>
        </mxCell>
        <mxCell id="VYm-MY7UEdnGm3pRA0sD-120" value="" style="edgeStyle=none;orthogonalLoop=1;jettySize=auto;html=1;rounded=0;endArrow=none;startFill=0;fillColor=#fff2cc;strokeColor=#d6b656;" edge="1" parent="1">
          <mxGeometry width="80" relative="1" as="geometry">
            <mxPoint x="630" y="439.79999999999995" as="sourcePoint" />
            <mxPoint x="650" y="439.79999999999995" as="targetPoint" />
            <Array as="points" />
          </mxGeometry>
        </mxCell>
        <mxCell id="VYm-MY7UEdnGm3pRA0sD-121" value="" style="whiteSpace=wrap;html=1;aspect=fixed;" vertex="1" parent="1">
          <mxGeometry x="80" y="480" width="80" height="80" as="geometry" />
        </mxCell>
        <mxCell id="VYm-MY7UEdnGm3pRA0sD-122" value="" style="whiteSpace=wrap;html=1;aspect=fixed;" vertex="1" parent="1">
          <mxGeometry x="160" y="480" width="80" height="80" as="geometry" />
        </mxCell>
        <mxCell id="VYm-MY7UEdnGm3pRA0sD-123" value="" style="whiteSpace=wrap;html=1;aspect=fixed;" vertex="1" parent="1">
          <mxGeometry x="240" y="480" width="80" height="80" as="geometry" />
        </mxCell>
        <mxCell id="VYm-MY7UEdnGm3pRA0sD-124" value="" style="whiteSpace=wrap;html=1;aspect=fixed;" vertex="1" parent="1">
          <mxGeometry x="320" y="480" width="80" height="80" as="geometry" />
        </mxCell>
        <mxCell id="VYm-MY7UEdnGm3pRA0sD-125" value="" style="whiteSpace=wrap;html=1;aspect=fixed;" vertex="1" parent="1">
          <mxGeometry x="400" y="480" width="80" height="80" as="geometry" />
        </mxCell>
        <mxCell id="VYm-MY7UEdnGm3pRA0sD-126" value="" style="whiteSpace=wrap;html=1;aspect=fixed;" vertex="1" parent="1">
          <mxGeometry x="480" y="480" width="80" height="80" as="geometry" />
        </mxCell>
        <mxCell id="VYm-MY7UEdnGm3pRA0sD-127" value="" style="whiteSpace=wrap;html=1;aspect=fixed;" vertex="1" parent="1">
          <mxGeometry x="560" y="480" width="80" height="80" as="geometry" />
        </mxCell>
        <mxCell id="VYm-MY7UEdnGm3pRA0sD-128" value="" style="whiteSpace=wrap;html=1;aspect=fixed;" vertex="1" parent="1">
          <mxGeometry x="640" y="480" width="80" height="80" as="geometry" />
        </mxCell>
        <mxCell id="VYm-MY7UEdnGm3pRA0sD-129" value="GCLK0" style="endArrow=none;html=1;rounded=0;spacingBottom=20;strokeWidth=3;fillColor=#f8cecc;strokeColor=#b85450;" edge="1" parent="1">
          <mxGeometry width="50" height="50" relative="1" as="geometry">
            <mxPoint x="90" y="519.5" as="sourcePoint" />
            <mxPoint x="150" y="519.5" as="targetPoint" />
          </mxGeometry>
        </mxCell>
        <mxCell id="VYm-MY7UEdnGm3pRA0sD-130" value="GCLK0" style="endArrow=none;html=1;rounded=0;spacingBottom=20;strokeWidth=3;fillColor=#f8cecc;strokeColor=#b85450;" edge="1" parent="1">
          <mxGeometry width="50" height="50" relative="1" as="geometry">
            <mxPoint x="170" y="519.5" as="sourcePoint" />
            <mxPoint x="230" y="519.5" as="targetPoint" />
          </mxGeometry>
        </mxCell>
        <mxCell id="VYm-MY7UEdnGm3pRA0sD-131" value="GCLK0" style="endArrow=none;html=1;rounded=0;spacingBottom=20;strokeWidth=3;fillColor=#f8cecc;strokeColor=#b85450;" edge="1" parent="1">
          <mxGeometry width="50" height="50" relative="1" as="geometry">
            <mxPoint x="250" y="519.5" as="sourcePoint" />
            <mxPoint x="310" y="519.5" as="targetPoint" />
          </mxGeometry>
        </mxCell>
        <mxCell id="VYm-MY7UEdnGm3pRA0sD-132" value="GCLK0" style="endArrow=none;html=1;rounded=0;spacingBottom=20;strokeWidth=3;fillColor=#f8cecc;strokeColor=#b85450;" edge="1" parent="1">
          <mxGeometry width="50" height="50" relative="1" as="geometry">
            <mxPoint x="330" y="519.5" as="sourcePoint" />
            <mxPoint x="390" y="519.5" as="targetPoint" />
          </mxGeometry>
        </mxCell>
        <mxCell id="VYm-MY7UEdnGm3pRA0sD-133" value="GCLK0" style="endArrow=none;html=1;rounded=0;spacingBottom=20;strokeWidth=3;fillColor=#fff2cc;strokeColor=#d6b656;" edge="1" parent="1">
          <mxGeometry width="50" height="50" relative="1" as="geometry">
            <mxPoint x="410" y="519.5" as="sourcePoint" />
            <mxPoint x="470" y="519.5" as="targetPoint" />
          </mxGeometry>
        </mxCell>
        <mxCell id="VYm-MY7UEdnGm3pRA0sD-134" value="GCLK0" style="endArrow=none;html=1;rounded=0;spacingBottom=20;strokeWidth=3;fillColor=#fff2cc;strokeColor=#d6b656;" edge="1" parent="1">
          <mxGeometry width="50" height="50" relative="1" as="geometry">
            <mxPoint x="490" y="519.5" as="sourcePoint" />
            <mxPoint x="550" y="519.5" as="targetPoint" />
          </mxGeometry>
        </mxCell>
        <mxCell id="VYm-MY7UEdnGm3pRA0sD-135" value="GCLK0" style="endArrow=none;html=1;rounded=0;spacingBottom=20;strokeWidth=3;fillColor=#fff2cc;strokeColor=#d6b656;" edge="1" parent="1">
          <mxGeometry width="50" height="50" relative="1" as="geometry">
            <mxPoint x="570" y="519.5" as="sourcePoint" />
            <mxPoint x="630" y="519.5" as="targetPoint" />
          </mxGeometry>
        </mxCell>
        <mxCell id="VYm-MY7UEdnGm3pRA0sD-136" value="GCLK0" style="endArrow=none;html=1;rounded=0;spacingBottom=20;strokeWidth=3;fillColor=#fff2cc;strokeColor=#d6b656;" edge="1" parent="1">
          <mxGeometry width="50" height="50" relative="1" as="geometry">
            <mxPoint x="650" y="519.5" as="sourcePoint" />
            <mxPoint x="710" y="519.5" as="targetPoint" />
          </mxGeometry>
        </mxCell>
        <mxCell id="VYm-MY7UEdnGm3pRA0sD-137" value="" style="edgeStyle=none;orthogonalLoop=1;jettySize=auto;html=1;rounded=0;endArrow=none;startFill=0;fillColor=#f8cecc;strokeColor=#b85450;" edge="1" parent="1">
          <mxGeometry width="80" relative="1" as="geometry">
            <mxPoint x="150" y="519.8" as="sourcePoint" />
            <mxPoint x="170" y="519.8" as="targetPoint" />
            <Array as="points" />
          </mxGeometry>
        </mxCell>
        <mxCell id="VYm-MY7UEdnGm3pRA0sD-138" value="" style="edgeStyle=none;orthogonalLoop=1;jettySize=auto;html=1;rounded=0;endArrow=none;startFill=0;fillColor=#f8cecc;strokeColor=#b85450;" edge="1" parent="1">
          <mxGeometry width="80" relative="1" as="geometry">
            <mxPoint x="230" y="519.8" as="sourcePoint" />
            <mxPoint x="250" y="519.8" as="targetPoint" />
            <Array as="points" />
          </mxGeometry>
        </mxCell>
        <mxCell id="VYm-MY7UEdnGm3pRA0sD-139" value="" style="edgeStyle=none;orthogonalLoop=1;jettySize=auto;html=1;rounded=0;endArrow=none;startFill=0;fillColor=#f8cecc;strokeColor=#b85450;" edge="1" parent="1">
          <mxGeometry width="80" relative="1" as="geometry">
            <mxPoint x="310" y="519.8" as="sourcePoint" />
            <mxPoint x="330" y="519.8" as="targetPoint" />
            <Array as="points" />
          </mxGeometry>
        </mxCell>
        <mxCell id="VYm-MY7UEdnGm3pRA0sD-140" value="" style="edgeStyle=none;orthogonalLoop=1;jettySize=auto;html=1;rounded=0;endArrow=none;startFill=0;fillColor=#fff2cc;strokeColor=#d6b656;" edge="1" parent="1">
          <mxGeometry width="80" relative="1" as="geometry">
            <mxPoint x="470" y="519.8" as="sourcePoint" />
            <mxPoint x="490" y="519.8" as="targetPoint" />
            <Array as="points" />
          </mxGeometry>
        </mxCell>
        <mxCell id="VYm-MY7UEdnGm3pRA0sD-141" value="" style="edgeStyle=none;orthogonalLoop=1;jettySize=auto;html=1;rounded=0;endArrow=none;startFill=0;fillColor=#fff2cc;strokeColor=#d6b656;" edge="1" parent="1">
          <mxGeometry width="80" relative="1" as="geometry">
            <mxPoint x="550" y="519.8" as="sourcePoint" />
            <mxPoint x="570" y="519.8" as="targetPoint" />
            <Array as="points" />
          </mxGeometry>
        </mxCell>
        <mxCell id="VYm-MY7UEdnGm3pRA0sD-142" value="" style="edgeStyle=none;orthogonalLoop=1;jettySize=auto;html=1;rounded=0;endArrow=none;startFill=0;fillColor=#fff2cc;strokeColor=#d6b656;" edge="1" parent="1">
          <mxGeometry width="80" relative="1" as="geometry">
            <mxPoint x="630" y="519.8" as="sourcePoint" />
            <mxPoint x="650" y="519.8" as="targetPoint" />
            <Array as="points" />
          </mxGeometry>
        </mxCell>
        <mxCell id="VYm-MY7UEdnGm3pRA0sD-143" value="" style="whiteSpace=wrap;html=1;aspect=fixed;" vertex="1" parent="1">
          <mxGeometry x="80" y="560" width="80" height="80" as="geometry" />
        </mxCell>
        <mxCell id="VYm-MY7UEdnGm3pRA0sD-144" value="" style="whiteSpace=wrap;html=1;aspect=fixed;" vertex="1" parent="1">
          <mxGeometry x="160" y="560" width="80" height="80" as="geometry" />
        </mxCell>
        <mxCell id="VYm-MY7UEdnGm3pRA0sD-145" value="" style="whiteSpace=wrap;html=1;aspect=fixed;" vertex="1" parent="1">
          <mxGeometry x="240" y="560" width="80" height="80" as="geometry" />
        </mxCell>
        <mxCell id="VYm-MY7UEdnGm3pRA0sD-146" value="" style="whiteSpace=wrap;html=1;aspect=fixed;" vertex="1" parent="1">
          <mxGeometry x="320" y="560" width="80" height="80" as="geometry" />
        </mxCell>
        <mxCell id="VYm-MY7UEdnGm3pRA0sD-147" value="" style="whiteSpace=wrap;html=1;aspect=fixed;" vertex="1" parent="1">
          <mxGeometry x="400" y="560" width="80" height="80" as="geometry" />
        </mxCell>
        <mxCell id="VYm-MY7UEdnGm3pRA0sD-148" value="" style="whiteSpace=wrap;html=1;aspect=fixed;" vertex="1" parent="1">
          <mxGeometry x="480" y="560" width="80" height="80" as="geometry" />
        </mxCell>
        <mxCell id="VYm-MY7UEdnGm3pRA0sD-149" value="" style="whiteSpace=wrap;html=1;aspect=fixed;" vertex="1" parent="1">
          <mxGeometry x="560" y="560" width="80" height="80" as="geometry" />
        </mxCell>
        <mxCell id="VYm-MY7UEdnGm3pRA0sD-150" value="" style="whiteSpace=wrap;html=1;aspect=fixed;" vertex="1" parent="1">
          <mxGeometry x="640" y="560" width="80" height="80" as="geometry" />
        </mxCell>
        <mxCell id="VYm-MY7UEdnGm3pRA0sD-151" value="GCLK0" style="endArrow=none;html=1;rounded=0;spacingBottom=20;strokeWidth=3;fillColor=#f8cecc;strokeColor=#b85450;" edge="1" parent="1">
          <mxGeometry width="50" height="50" relative="1" as="geometry">
            <mxPoint x="90" y="599.5" as="sourcePoint" />
            <mxPoint x="150" y="599.5" as="targetPoint" />
          </mxGeometry>
        </mxCell>
        <mxCell id="VYm-MY7UEdnGm3pRA0sD-152" value="GCLK0" style="endArrow=none;html=1;rounded=0;spacingBottom=20;strokeWidth=3;fillColor=#f8cecc;strokeColor=#b85450;" edge="1" parent="1">
          <mxGeometry width="50" height="50" relative="1" as="geometry">
            <mxPoint x="170" y="599.5" as="sourcePoint" />
            <mxPoint x="230" y="599.5" as="targetPoint" />
          </mxGeometry>
        </mxCell>
        <mxCell id="VYm-MY7UEdnGm3pRA0sD-153" value="GCLK0" style="endArrow=none;html=1;rounded=0;spacingBottom=20;strokeWidth=3;fillColor=#f8cecc;strokeColor=#b85450;" edge="1" parent="1">
          <mxGeometry width="50" height="50" relative="1" as="geometry">
            <mxPoint x="250" y="599.5" as="sourcePoint" />
            <mxPoint x="310" y="599.5" as="targetPoint" />
          </mxGeometry>
        </mxCell>
        <mxCell id="VYm-MY7UEdnGm3pRA0sD-154" value="GCLK0" style="endArrow=none;html=1;rounded=0;spacingBottom=20;strokeWidth=3;fillColor=#f8cecc;strokeColor=#b85450;" edge="1" parent="1">
          <mxGeometry width="50" height="50" relative="1" as="geometry">
            <mxPoint x="330" y="599.5" as="sourcePoint" />
            <mxPoint x="390" y="599.5" as="targetPoint" />
          </mxGeometry>
        </mxCell>
        <mxCell id="VYm-MY7UEdnGm3pRA0sD-155" value="GCLK0" style="endArrow=none;html=1;rounded=0;spacingBottom=20;strokeWidth=3;fillColor=#fff2cc;strokeColor=#d6b656;" edge="1" parent="1">
          <mxGeometry width="50" height="50" relative="1" as="geometry">
            <mxPoint x="410" y="599.5" as="sourcePoint" />
            <mxPoint x="470" y="599.5" as="targetPoint" />
          </mxGeometry>
        </mxCell>
        <mxCell id="VYm-MY7UEdnGm3pRA0sD-156" value="GCLK0" style="endArrow=none;html=1;rounded=0;spacingBottom=20;strokeWidth=3;fillColor=#fff2cc;strokeColor=#d6b656;" edge="1" parent="1">
          <mxGeometry width="50" height="50" relative="1" as="geometry">
            <mxPoint x="490" y="599.5" as="sourcePoint" />
            <mxPoint x="550" y="599.5" as="targetPoint" />
          </mxGeometry>
        </mxCell>
        <mxCell id="VYm-MY7UEdnGm3pRA0sD-157" value="GCLK0" style="endArrow=none;html=1;rounded=0;spacingBottom=20;strokeWidth=3;fillColor=#fff2cc;strokeColor=#d6b656;" edge="1" parent="1">
          <mxGeometry width="50" height="50" relative="1" as="geometry">
            <mxPoint x="570" y="599.5" as="sourcePoint" />
            <mxPoint x="630" y="599.5" as="targetPoint" />
          </mxGeometry>
        </mxCell>
        <mxCell id="VYm-MY7UEdnGm3pRA0sD-158" value="GCLK0" style="endArrow=none;html=1;rounded=0;spacingBottom=20;strokeWidth=3;fillColor=#fff2cc;strokeColor=#d6b656;" edge="1" parent="1">
          <mxGeometry width="50" height="50" relative="1" as="geometry">
            <mxPoint x="650" y="599.5" as="sourcePoint" />
            <mxPoint x="710" y="599.5" as="targetPoint" />
          </mxGeometry>
        </mxCell>
        <mxCell id="VYm-MY7UEdnGm3pRA0sD-159" value="" style="edgeStyle=none;orthogonalLoop=1;jettySize=auto;html=1;rounded=0;endArrow=none;startFill=0;fillColor=#f8cecc;strokeColor=#b85450;" edge="1" parent="1">
          <mxGeometry width="80" relative="1" as="geometry">
            <mxPoint x="150" y="599.8" as="sourcePoint" />
            <mxPoint x="170" y="599.8" as="targetPoint" />
            <Array as="points" />
          </mxGeometry>
        </mxCell>
        <mxCell id="VYm-MY7UEdnGm3pRA0sD-160" value="" style="edgeStyle=none;orthogonalLoop=1;jettySize=auto;html=1;rounded=0;endArrow=none;startFill=0;fillColor=#f8cecc;strokeColor=#b85450;" edge="1" parent="1">
          <mxGeometry width="80" relative="1" as="geometry">
            <mxPoint x="230" y="599.8" as="sourcePoint" />
            <mxPoint x="250" y="599.8" as="targetPoint" />
            <Array as="points" />
          </mxGeometry>
        </mxCell>
        <mxCell id="VYm-MY7UEdnGm3pRA0sD-161" value="" style="edgeStyle=none;orthogonalLoop=1;jettySize=auto;html=1;rounded=0;endArrow=none;startFill=0;fillColor=#f8cecc;strokeColor=#b85450;" edge="1" parent="1">
          <mxGeometry width="80" relative="1" as="geometry">
            <mxPoint x="310" y="599.8" as="sourcePoint" />
            <mxPoint x="330" y="599.8" as="targetPoint" />
            <Array as="points" />
          </mxGeometry>
        </mxCell>
        <mxCell id="VYm-MY7UEdnGm3pRA0sD-162" value="" style="edgeStyle=none;orthogonalLoop=1;jettySize=auto;html=1;rounded=0;endArrow=none;startFill=0;fillColor=#fff2cc;strokeColor=#d6b656;" edge="1" parent="1">
          <mxGeometry width="80" relative="1" as="geometry">
            <mxPoint x="470" y="599.8" as="sourcePoint" />
            <mxPoint x="490" y="599.8" as="targetPoint" />
            <Array as="points" />
          </mxGeometry>
        </mxCell>
        <mxCell id="VYm-MY7UEdnGm3pRA0sD-163" value="" style="edgeStyle=none;orthogonalLoop=1;jettySize=auto;html=1;rounded=0;endArrow=none;startFill=0;fillColor=#fff2cc;strokeColor=#d6b656;" edge="1" parent="1">
          <mxGeometry width="80" relative="1" as="geometry">
            <mxPoint x="550" y="599.8" as="sourcePoint" />
            <mxPoint x="570" y="599.8" as="targetPoint" />
            <Array as="points" />
          </mxGeometry>
        </mxCell>
        <mxCell id="VYm-MY7UEdnGm3pRA0sD-164" value="" style="edgeStyle=none;orthogonalLoop=1;jettySize=auto;html=1;rounded=0;endArrow=none;startFill=0;fillColor=#fff2cc;strokeColor=#d6b656;" edge="1" parent="1">
          <mxGeometry width="80" relative="1" as="geometry">
            <mxPoint x="630" y="599.8" as="sourcePoint" />
            <mxPoint x="650" y="599.8" as="targetPoint" />
            <Array as="points" />
          </mxGeometry>
        </mxCell>
        <mxCell id="VYm-MY7UEdnGm3pRA0sD-165" value="" style="whiteSpace=wrap;html=1;aspect=fixed;" vertex="1" parent="1">
          <mxGeometry x="80" y="640" width="80" height="80" as="geometry" />
        </mxCell>
        <mxCell id="VYm-MY7UEdnGm3pRA0sD-166" value="" style="whiteSpace=wrap;html=1;aspect=fixed;" vertex="1" parent="1">
          <mxGeometry x="160" y="640" width="80" height="80" as="geometry" />
        </mxCell>
        <mxCell id="VYm-MY7UEdnGm3pRA0sD-167" value="" style="whiteSpace=wrap;html=1;aspect=fixed;" vertex="1" parent="1">
          <mxGeometry x="240" y="640" width="80" height="80" as="geometry" />
        </mxCell>
        <mxCell id="VYm-MY7UEdnGm3pRA0sD-168" value="" style="whiteSpace=wrap;html=1;aspect=fixed;" vertex="1" parent="1">
          <mxGeometry x="320" y="640" width="80" height="80" as="geometry" />
        </mxCell>
        <mxCell id="VYm-MY7UEdnGm3pRA0sD-169" value="" style="whiteSpace=wrap;html=1;aspect=fixed;" vertex="1" parent="1">
          <mxGeometry x="400" y="640" width="80" height="80" as="geometry" />
        </mxCell>
        <mxCell id="VYm-MY7UEdnGm3pRA0sD-170" value="" style="whiteSpace=wrap;html=1;aspect=fixed;" vertex="1" parent="1">
          <mxGeometry x="480" y="640" width="80" height="80" as="geometry" />
        </mxCell>
        <mxCell id="VYm-MY7UEdnGm3pRA0sD-171" value="" style="whiteSpace=wrap;html=1;aspect=fixed;" vertex="1" parent="1">
          <mxGeometry x="560" y="640" width="80" height="80" as="geometry" />
        </mxCell>
        <mxCell id="VYm-MY7UEdnGm3pRA0sD-172" value="" style="whiteSpace=wrap;html=1;aspect=fixed;" vertex="1" parent="1">
          <mxGeometry x="640" y="640" width="80" height="80" as="geometry" />
        </mxCell>
        <mxCell id="VYm-MY7UEdnGm3pRA0sD-173" value="GCLK0" style="endArrow=none;html=1;rounded=0;spacingBottom=20;strokeWidth=3;fillColor=#f8cecc;strokeColor=#b85450;" edge="1" parent="1">
          <mxGeometry width="50" height="50" relative="1" as="geometry">
            <mxPoint x="90" y="679.5" as="sourcePoint" />
            <mxPoint x="150" y="679.5" as="targetPoint" />
          </mxGeometry>
        </mxCell>
        <mxCell id="VYm-MY7UEdnGm3pRA0sD-174" value="GCLK0" style="endArrow=none;html=1;rounded=0;spacingBottom=20;strokeWidth=3;fillColor=#f8cecc;strokeColor=#b85450;" edge="1" parent="1">
          <mxGeometry width="50" height="50" relative="1" as="geometry">
            <mxPoint x="170" y="679.5" as="sourcePoint" />
            <mxPoint x="230" y="679.5" as="targetPoint" />
          </mxGeometry>
        </mxCell>
        <mxCell id="VYm-MY7UEdnGm3pRA0sD-175" value="GCLK0" style="endArrow=none;html=1;rounded=0;spacingBottom=20;strokeWidth=3;fillColor=#f8cecc;strokeColor=#b85450;" edge="1" parent="1">
          <mxGeometry width="50" height="50" relative="1" as="geometry">
            <mxPoint x="250" y="679.5" as="sourcePoint" />
            <mxPoint x="310" y="679.5" as="targetPoint" />
          </mxGeometry>
        </mxCell>
        <mxCell id="VYm-MY7UEdnGm3pRA0sD-176" value="GCLK0" style="endArrow=none;html=1;rounded=0;spacingBottom=20;strokeWidth=3;fillColor=#f8cecc;strokeColor=#b85450;" edge="1" parent="1">
          <mxGeometry width="50" height="50" relative="1" as="geometry">
            <mxPoint x="330" y="679.5" as="sourcePoint" />
            <mxPoint x="390" y="679.5" as="targetPoint" />
          </mxGeometry>
        </mxCell>
        <mxCell id="VYm-MY7UEdnGm3pRA0sD-177" value="GCLK0" style="endArrow=none;html=1;rounded=0;spacingBottom=20;strokeWidth=3;fillColor=#fff2cc;strokeColor=#d6b656;" edge="1" parent="1">
          <mxGeometry width="50" height="50" relative="1" as="geometry">
            <mxPoint x="410" y="679.5" as="sourcePoint" />
            <mxPoint x="470" y="679.5" as="targetPoint" />
          </mxGeometry>
        </mxCell>
        <mxCell id="VYm-MY7UEdnGm3pRA0sD-178" value="GCLK0" style="endArrow=none;html=1;rounded=0;spacingBottom=20;strokeWidth=3;fillColor=#fff2cc;strokeColor=#d6b656;" edge="1" parent="1">
          <mxGeometry width="50" height="50" relative="1" as="geometry">
            <mxPoint x="490" y="679.5" as="sourcePoint" />
            <mxPoint x="550" y="679.5" as="targetPoint" />
          </mxGeometry>
        </mxCell>
        <mxCell id="VYm-MY7UEdnGm3pRA0sD-179" value="GCLK0" style="endArrow=none;html=1;rounded=0;spacingBottom=20;strokeWidth=3;fillColor=#fff2cc;strokeColor=#d6b656;" edge="1" parent="1">
          <mxGeometry width="50" height="50" relative="1" as="geometry">
            <mxPoint x="570" y="679.5" as="sourcePoint" />
            <mxPoint x="630" y="679.5" as="targetPoint" />
          </mxGeometry>
        </mxCell>
        <mxCell id="VYm-MY7UEdnGm3pRA0sD-180" value="GCLK0" style="endArrow=none;html=1;rounded=0;spacingBottom=20;strokeWidth=3;fillColor=#fff2cc;strokeColor=#d6b656;" edge="1" parent="1">
          <mxGeometry width="50" height="50" relative="1" as="geometry">
            <mxPoint x="650" y="679.5" as="sourcePoint" />
            <mxPoint x="710" y="679.5" as="targetPoint" />
          </mxGeometry>
        </mxCell>
        <mxCell id="VYm-MY7UEdnGm3pRA0sD-181" value="" style="edgeStyle=none;orthogonalLoop=1;jettySize=auto;html=1;rounded=0;endArrow=none;startFill=0;fillColor=#f8cecc;strokeColor=#b85450;" edge="1" parent="1">
          <mxGeometry width="80" relative="1" as="geometry">
            <mxPoint x="150" y="679.8" as="sourcePoint" />
            <mxPoint x="170" y="679.8" as="targetPoint" />
            <Array as="points" />
          </mxGeometry>
        </mxCell>
        <mxCell id="VYm-MY7UEdnGm3pRA0sD-182" value="" style="edgeStyle=none;orthogonalLoop=1;jettySize=auto;html=1;rounded=0;endArrow=none;startFill=0;fillColor=#f8cecc;strokeColor=#b85450;" edge="1" parent="1">
          <mxGeometry width="80" relative="1" as="geometry">
            <mxPoint x="230" y="679.8" as="sourcePoint" />
            <mxPoint x="250" y="679.8" as="targetPoint" />
            <Array as="points" />
          </mxGeometry>
        </mxCell>
        <mxCell id="VYm-MY7UEdnGm3pRA0sD-183" value="" style="edgeStyle=none;orthogonalLoop=1;jettySize=auto;html=1;rounded=0;endArrow=none;startFill=0;fillColor=#f8cecc;strokeColor=#b85450;" edge="1" parent="1">
          <mxGeometry width="80" relative="1" as="geometry">
            <mxPoint x="310" y="679.8" as="sourcePoint" />
            <mxPoint x="330" y="679.8" as="targetPoint" />
            <Array as="points" />
          </mxGeometry>
        </mxCell>
        <mxCell id="VYm-MY7UEdnGm3pRA0sD-184" value="" style="edgeStyle=none;orthogonalLoop=1;jettySize=auto;html=1;rounded=0;endArrow=none;startFill=0;fillColor=#fff2cc;strokeColor=#d6b656;" edge="1" parent="1">
          <mxGeometry width="80" relative="1" as="geometry">
            <mxPoint x="470" y="679.8" as="sourcePoint" />
            <mxPoint x="490" y="679.8" as="targetPoint" />
            <Array as="points" />
          </mxGeometry>
        </mxCell>
        <mxCell id="VYm-MY7UEdnGm3pRA0sD-185" value="" style="edgeStyle=none;orthogonalLoop=1;jettySize=auto;html=1;rounded=0;endArrow=none;startFill=0;fillColor=#fff2cc;strokeColor=#d6b656;" edge="1" parent="1">
          <mxGeometry width="80" relative="1" as="geometry">
            <mxPoint x="550" y="679.8" as="sourcePoint" />
            <mxPoint x="570" y="679.8" as="targetPoint" />
            <Array as="points" />
          </mxGeometry>
        </mxCell>
        <mxCell id="VYm-MY7UEdnGm3pRA0sD-186" value="" style="edgeStyle=none;orthogonalLoop=1;jettySize=auto;html=1;rounded=0;endArrow=none;startFill=0;fillColor=#fff2cc;strokeColor=#d6b656;" edge="1" parent="1">
          <mxGeometry width="80" relative="1" as="geometry">
            <mxPoint x="630" y="679.8" as="sourcePoint" />
            <mxPoint x="650" y="679.8" as="targetPoint" />
            <Array as="points" />
          </mxGeometry>
        </mxCell>
        <mxCell id="VYm-MY7UEdnGm3pRA0sD-187" value="" style="edgeStyle=none;orthogonalLoop=1;jettySize=auto;html=1;rounded=0;endArrow=none;startFill=0;fillColor=#dae8fc;strokeColor=#6c8ebf;" edge="1" parent="1">
          <mxGeometry width="80" relative="1" as="geometry">
            <mxPoint x="390" y="120" as="sourcePoint" />
            <mxPoint x="390" y="360" as="targetPoint" />
            <Array as="points" />
          </mxGeometry>
        </mxCell>
        <mxCell id="VYm-MY7UEdnGm3pRA0sD-276" value="" style="edgeStyle=none;orthogonalLoop=1;jettySize=auto;html=1;rounded=0;endArrow=none;startFill=0;fillColor=#d5e8d4;strokeColor=#82b366;" edge="1" parent="1">
          <mxGeometry width="80" relative="1" as="geometry">
            <mxPoint x="410" y="120" as="sourcePoint" />
            <mxPoint x="410" y="360" as="targetPoint" />
            <Array as="points" />
          </mxGeometry>
        </mxCell>
        <mxCell id="VYm-MY7UEdnGm3pRA0sD-277" value="" style="edgeStyle=none;orthogonalLoop=1;jettySize=auto;html=1;rounded=0;endArrow=none;startFill=0;fillColor=#f8cecc;strokeColor=#b85450;" edge="1" parent="1">
          <mxGeometry width="80" relative="1" as="geometry">
            <mxPoint x="390" y="440" as="sourcePoint" />
            <mxPoint x="390" y="680" as="targetPoint" />
            <Array as="points" />
          </mxGeometry>
        </mxCell>
        <mxCell id="VYm-MY7UEdnGm3pRA0sD-278" value="" style="edgeStyle=none;orthogonalLoop=1;jettySize=auto;html=1;rounded=0;endArrow=none;startFill=0;fillColor=#fff2cc;strokeColor=#d6b656;" edge="1" parent="1">
          <mxGeometry width="80" relative="1" as="geometry">
            <mxPoint x="410" y="440" as="sourcePoint" />
            <mxPoint x="410" y="680" as="targetPoint" />
            <Array as="points" />
          </mxGeometry>
        </mxCell>
        <mxCell id="VYm-MY7UEdnGm3pRA0sD-279" value="X0" style="text;html=1;align=center;verticalAlign=middle;whiteSpace=wrap;rounded=0;" vertex="1" parent="1">
          <mxGeometry x="90" y="50" width="60" height="30" as="geometry" />
        </mxCell>
        <mxCell id="VYm-MY7UEdnGm3pRA0sD-280" value="X1" style="text;html=1;align=center;verticalAlign=middle;whiteSpace=wrap;rounded=0;" vertex="1" parent="1">
          <mxGeometry x="170" y="50" width="60" height="30" as="geometry" />
        </mxCell>
        <mxCell id="VYm-MY7UEdnGm3pRA0sD-281" value="X2" style="text;html=1;align=center;verticalAlign=middle;whiteSpace=wrap;rounded=0;" vertex="1" parent="1">
          <mxGeometry x="250" y="50" width="60" height="30" as="geometry" />
        </mxCell>
        <mxCell id="VYm-MY7UEdnGm3pRA0sD-282" value="X3" style="text;html=1;align=center;verticalAlign=middle;whiteSpace=wrap;rounded=0;" vertex="1" parent="1">
          <mxGeometry x="330" y="50" width="60" height="30" as="geometry" />
        </mxCell>
        <mxCell id="VYm-MY7UEdnGm3pRA0sD-283" value="X4" style="text;html=1;align=center;verticalAlign=middle;whiteSpace=wrap;rounded=0;" vertex="1" parent="1">
          <mxGeometry x="410" y="50" width="60" height="30" as="geometry" />
        </mxCell>
        <mxCell id="VYm-MY7UEdnGm3pRA0sD-284" value="X5" style="text;html=1;align=center;verticalAlign=middle;whiteSpace=wrap;rounded=0;" vertex="1" parent="1">
          <mxGeometry x="490" y="50" width="60" height="30" as="geometry" />
        </mxCell>
        <mxCell id="VYm-MY7UEdnGm3pRA0sD-285" value="X6" style="text;html=1;align=center;verticalAlign=middle;whiteSpace=wrap;rounded=0;" vertex="1" parent="1">
          <mxGeometry x="570" y="50" width="60" height="30" as="geometry" />
        </mxCell>
        <mxCell id="VYm-MY7UEdnGm3pRA0sD-286" value="X7" style="text;html=1;align=center;verticalAlign=middle;whiteSpace=wrap;rounded=0;" vertex="1" parent="1">
          <mxGeometry x="650" y="50" width="60" height="30" as="geometry" />
        </mxCell>
        <mxCell id="VYm-MY7UEdnGm3pRA0sD-287" value="Y0" style="text;html=1;align=center;verticalAlign=middle;whiteSpace=wrap;rounded=0;" vertex="1" parent="1">
          <mxGeometry x="30" y="665" width="60" height="30" as="geometry" />
        </mxCell>
        <mxCell id="VYm-MY7UEdnGm3pRA0sD-288" value="Y1" style="text;html=1;align=center;verticalAlign=middle;whiteSpace=wrap;rounded=0;" vertex="1" parent="1">
          <mxGeometry x="30" y="585" width="60" height="30" as="geometry" />
        </mxCell>
        <mxCell id="VYm-MY7UEdnGm3pRA0sD-289" value="Y2" style="text;html=1;align=center;verticalAlign=middle;whiteSpace=wrap;rounded=0;" vertex="1" parent="1">
          <mxGeometry x="30" y="505" width="60" height="30" as="geometry" />
        </mxCell>
        <mxCell id="VYm-MY7UEdnGm3pRA0sD-290" value="Y3" style="text;html=1;align=center;verticalAlign=middle;whiteSpace=wrap;rounded=0;" vertex="1" parent="1">
          <mxGeometry x="30" y="425" width="60" height="30" as="geometry" />
        </mxCell>
        <mxCell id="VYm-MY7UEdnGm3pRA0sD-291" value="Y4" style="text;html=1;align=center;verticalAlign=middle;whiteSpace=wrap;rounded=0;" vertex="1" parent="1">
          <mxGeometry x="30" y="345" width="60" height="30" as="geometry" />
        </mxCell>
        <mxCell id="VYm-MY7UEdnGm3pRA0sD-292" value="Y5" style="text;html=1;align=center;verticalAlign=middle;whiteSpace=wrap;rounded=0;" vertex="1" parent="1">
          <mxGeometry x="30" y="265" width="60" height="30" as="geometry" />
        </mxCell>
        <mxCell id="VYm-MY7UEdnGm3pRA0sD-293" value="Y6" style="text;html=1;align=center;verticalAlign=middle;whiteSpace=wrap;rounded=0;" vertex="1" parent="1">
          <mxGeometry x="30" y="185" width="60" height="30" as="geometry" />
        </mxCell>
        <mxCell id="VYm-MY7UEdnGm3pRA0sD-294" value="Y7" style="text;html=1;align=center;verticalAlign=middle;whiteSpace=wrap;rounded=0;" vertex="1" parent="1">
          <mxGeometry x="30" y="105" width="60" height="30" as="geometry" />
        </mxCell>
      </root>
    </mxGraphModel>
  </diagram>
</mxfile>
